<?xml version="1.0" encoding="iso-8859-1"?>
<!-- Uploaded to: SVG Repo, www.svgrepo.com, Generator: SVG Repo Mixer Tools -->
<svg fill="#000000" height="800px" width="800px" version="1.1" id="Layer_1" xmlns="http://www.w3.org/2000/svg" xmlns:xlink="http://www.w3.org/1999/xlink" 
	 viewBox="0 0 480 480" xml:space="preserve">
<g>
	<g>
		<g>
			<path d="M472,216h-8v-40c0-2.128-0.84-4.16-2.344-5.656l-32-32C428.16,136.84,426.12,136,424,136h-8V8c0-4.424-3.584-8-8-8
				c-4.416,0-8,3.576-8,8v128h-24h-32h-24v-8c0-4.424-3.584-8-8-8h-2.664l-37.552-90.112C270.68,13.24,256.92,0,240,0
				c-16.92,0-30.68,13.24-31.784,29.888L170.664,120H168c-4.416,0-8,3.576-8,8v8h-24h-32H80V8c0-4.424-3.584-8-8-8s-8,3.576-8,8v128
				h-8c-2.12,0-4.16,0.84-5.656,2.344l-32,32C16.84,171.84,16,173.872,16,176v40H8c-4.416,0-8,3.576-8,8v200v48c0,4.424,3.584,8,8,8
				h48h368h48c4.416,0,8-3.576,8-8v-48V224C480,219.576,476.416,216,472,216z M384,152h16v8c0,4.424,3.584,8,8,8
				c4.416,0,8-3.576,8-8v-8h4.688L448,179.312V216h-17.752l-6.488-25.936c-0.888-3.568-4.088-6.064-7.76-6.064h-32V152z M352,152h16
				v32h-16V152z M320,152h16v32h-16V152z M280,152h-0.808c-1.216-5.944-3.856-11.328-7.392-16H304v8v40h-32.208
				c3.536-4.672,6.184-10.056,7.392-16H280c4.416,0,8-3.576,8-8S284.416,152,280,152z M240,16c8.824,0,16,7.176,16,16
				s-7.176,16-16,16c-8.824,0-16-7.176-16-16S231.176,16,240,16z M215.96,52.896c4.176,4.8,9.704,8.32,16.04,9.968V72
				c0,4.424,3.584,8,8,8s8-3.576,8-8v-9.136c6.336-1.648,11.864-5.168,16.04-9.968L292,120H188L215.96,52.896z M262.616,167.72
				C259.376,177.152,250.52,184,240,184c-10.52,0-19.376-6.848-22.616-16.28c3.736-0.68,6.616-3.792,6.616-7.72
				s-2.88-7.04-6.616-7.72C220.624,142.848,229.48,136,240,136s19.376,6.848,22.616,16.28C258.88,152.96,256,156.072,256,160
				S258.88,167.04,262.616,167.72z M176,144v-8h32.208c-3.544,4.672-6.184,10.056-7.4,16H200c-4.416,0-8,3.576-8,8s3.584,8,8,8
				h0.808c1.216,5.944,3.856,11.328,7.392,16H176V144z M144,152h16v32h-16V152z M112,152h16v32h-16V152z M136,200h32h144h32h32
				h33.752l4,16H66.248l4-16H104H136z M32,179.312L59.312,152H64v8c0,4.424,3.584,8,8,8s8-3.576,8-8v-8h16v32H64
				c-3.672,0-6.872,2.496-7.76,6.064L49.752,216H32V179.312z M48,464H16v-32h32V464z M416,464H64v-32h352V464z M464,464h-32v-32h32
				V464z M464,416h-40H56H16V232h8h32h368h32h8V416z"/>
			<path d="M136,456h40c4.416,0,8-3.576,8-8s-3.584-8-8-8h-40c-4.416,0-8,3.576-8,8S131.584,456,136,456z"/>
			<path d="M296,456h40c4.416,0,8-3.576,8-8s-3.584-8-8-8h-40c-4.416,0-8,3.576-8,8S291.584,456,296,456z"/>
			<path d="M48,248c-4.416,0-8,3.576-8,8v136c0,4.424,3.584,8,8,8s8-3.576,8-8V256C56,251.576,52.416,248,48,248z"/>
			<path d="M80,248c-4.416,0-8,3.576-8,8v136c0,4.424,3.584,8,8,8s8-3.576,8-8V256C88,251.576,84.416,248,80,248z"/>
			<path d="M112,248c-4.416,0-8,3.576-8,8v136c0,4.424,3.584,8,8,8s8-3.576,8-8V256C120,251.576,116.416,248,112,248z"/>
			<path d="M144,248c-4.416,0-8,3.576-8,8v136c0,4.424,3.584,8,8,8s8-3.576,8-8V256C152,251.576,148.416,248,144,248z"/>
			<path d="M176,248c-4.416,0-8,3.576-8,8v136c0,4.424,3.584,8,8,8s8-3.576,8-8V256C184,251.576,180.416,248,176,248z"/>
			<path d="M208,248c-4.416,0-8,3.576-8,8v136c0,4.424,3.584,8,8,8s8-3.576,8-8V256C216,251.576,212.416,248,208,248z"/>
			<path d="M240,248c-4.416,0-8,3.576-8,8v136c0,4.424,3.584,8,8,8s8-3.576,8-8V256C248,251.576,244.416,248,240,248z"/>
			<path d="M272,248c-4.416,0-8,3.576-8,8v136c0,4.424,3.584,8,8,8c4.416,0,8-3.576,8-8V256C280,251.576,276.416,248,272,248z"/>
			<path d="M304,248c-4.416,0-8,3.576-8,8v136c0,4.424,3.584,8,8,8c4.416,0,8-3.576,8-8V256C312,251.576,308.416,248,304,248z"/>
			<path d="M336,248c-4.416,0-8,3.576-8,8v136c0,4.424,3.584,8,8,8c4.416,0,8-3.576,8-8V256C344,251.576,340.416,248,336,248z"/>
			<path d="M368,248c-4.416,0-8,3.576-8,8v136c0,4.424,3.584,8,8,8c4.416,0,8-3.576,8-8V256C376,251.576,372.416,248,368,248z"/>
			<path d="M400,248c-4.416,0-8,3.576-8,8v136c0,4.424,3.584,8,8,8c4.416,0,8-3.576,8-8V256C408,251.576,404.416,248,400,248z"/>
			<path d="M432,248c-4.416,0-8,3.576-8,8v136c0,4.424,3.584,8,8,8c4.416,0,8-3.576,8-8V256C440,251.576,436.416,248,432,248z"/>
			<circle cx="32" cy="448" r="8"/>
			<circle cx="448" cy="448" r="8"/>
		</g>
	</g>
</g>
</svg>